<svg xmlns="http://www.w3.org/2000/svg" viewBox="0 0 340.16 340.16"><path fill="#fff" d="m61.18 99.22 9.25-19.65 14.45-10.4 15.03-9.25h20.22l25.43 5.78 15.03 7.51 23.12 1.16 15.02-6.94 15.03-6.36 19.07-2.31 11.56.58 16.76 10.4 12.71 11.56 9.25 22.54v20.23l-1.16 20.8-27.16 81.49-30.63 48.55-15.6 10.4-13.87-2.31-7.52-13.29 4.77-28.83-3.03-19.72-40.46 12.14 4.62 35.25-5.78 13.29-10.4 2.89-15.6-4.04-19.65-28.32-32.36-72.82L55.41 131z"/><path fill="#2e89e4" d="M283.42 90.91c-7.64-17.21-22.92-31.41-39-36.18a46.8 46.8 0 0 0-19.19-1.4c-11.48 1.42-22.23 6.26-32.73 10.93l-1.92.86a52.55 52.55 0 0 1-38.13 0c-13.25-5.91-26.28-11.22-40-11.22A47.4 47.4 0 0 0 95.36 57c-16.63 6.49-30.78 20.53-36.94 36.69-10.35 27.23-3.26 55.36 6 81.69 6.62 19 15.2 39.13 27 63.55.75 1.54 1.49 3.1 2.23 4.65 7.58 15.89 15.42 32.32 31.94 42.47a24.4 24.4 0 0 0 12.66 4c11.31 0 19.64-10.86 19.81-25.82 0-1.24.06-2.57.13-3.95a4.2 4.2 0 0 1-1.11.4 5.2 5.2 0 0 1-1.73.29h-.68a5 5 0 0 1-.77-.06 5 5 0 0 1-.8-.07 9.2 9.2 0 0 1-2.78-.65 4.3 4.3 0 0 1-1.13-.5c-.09 1.6-.15 3.1-.17 4.43-.1 8.38-3.82 16.85-10.75 16.85a15.66 15.66 0 0 1-7.93-2.68c-14.23-8.74-21.48-23.94-28.49-38.65-.76-1.57-1.5-3.14-2.26-4.69-11.65-24.1-20.1-44-26.6-62.59-8.64-24.73-15.35-51-6-75.49C72.16 83.08 84.33 71 98.64 65.5a37.6 37.6 0 0 1 13.85-2.5c11.9 0 24 4.94 36.27 10.44 6.31 2.81 14.4 4.35 22.79 4.35a57.3 57.3 0 0 0 22.73-4.35l1.93-.87c9.84-4.4 20-9 30.18-10.21a37.6 37.6 0 0 1 15.5 1.09c13.38 4 26.74 16.51 33.24 31.17 10.94 24.66 3.59 53.17-5 77.81-6.57 18.78-15 38.67-26.62 62.59q-1.15 2.37-2.29 4.77c-7 14.67-14.23 29.85-28.44 38.58a15.64 15.64 0 0 1-7.93 2.68c-6.93 0-10.67-8.48-10.77-16.85a202 202 0 0 0-2.11-23.28 4 4 0 0 1-.5.24 4.4 4.4 0 0 1-2.33 1.29l-.09.05a4.4 4.4 0 0 1-2 1.3 4.3 4.3 0 0 1-1.78 1 4.8 4.8 0 0 1-1 .53 4.6 4.6 0 0 1-.7.44 174 174 0 0 1 1.51 18.5c.18 15 8.52 25.83 19.83 25.83a24.46 24.46 0 0 0 12.67-4c16.49-10.13 24.32-26.53 31.88-42.4q1.13-2.37 2.26-4.72c11.75-24.23 20.34-44.43 27-63.54 9.14-26.37 16.91-56.98 4.7-84.53M147.2 156.55c-2.94-3.28 1.92-8.2 4.88-4.85 11.26 12.66 27.86 12.24 40.36 1.53 3.37-2.87 8.27 2 4.89 4.88-15.16 13-36.2 14.12-50.13-1.53Zm70.69-34.64a9.7 9.7 0 0 0-1.94.19 9.4 9.4 0 0 0-1.87.57 10 10 0 0 0-1.73.92 10 10 0 0 0-1.51 1.24 9.7 9.7 0 0 0-2.15 3.23 9.4 9.4 0 0 0-.57 1.87 10 10 0 0 0 0 3.89 9.4 9.4 0 0 0 .57 1.87 9.7 9.7 0 0 0 2.15 3.23 10 10 0 0 0 1.51 1.24 9.6 9.6 0 0 0 1.73.93 10 10 0 0 0 1.87.56 10 10 0 0 0 3.89 0 10.3 10.3 0 0 0 1.87-.56 10 10 0 0 0 1.72-.93 9.4 9.4 0 0 0 1.51-1.24 9 9 0 0 0 1.24-1.51 9.5 9.5 0 0 0 .92-1.72 10 10 0 0 0 .57-1.87 10 10 0 0 0 0-3.89 10 10 0 0 0-.57-1.87 9.5 9.5 0 0 0-.92-1.72 9 9 0 0 0-1.24-1.51 9.4 9.4 0 0 0-1.51-1.24 10.5 10.5 0 0 0-1.72-.92 9.6 9.6 0 0 0-1.87-.57 10 10 0 0 0-1.95-.19m-92 0a9.7 9.7 0 0 0-1.94.19 9.4 9.4 0 0 0-1.87.57 10 10 0 0 0-1.73.92 10 10 0 0 0-1.51 1.24 10 10 0 0 0-2.16 3.23 9.4 9.4 0 0 0-.56 1.87 10 10 0 0 0 0 3.89 9.4 9.4 0 0 0 .56 1.87 10 10 0 0 0 2.16 3.23 10 10 0 0 0 1.51 1.24 9.6 9.6 0 0 0 1.73.93 10 10 0 0 0 1.87.56 9.7 9.7 0 0 0 1.94.19 10 10 0 0 0 1.95-.19 10.3 10.3 0 0 0 1.87-.56 10 10 0 0 0 1.72-.93 9.4 9.4 0 0 0 1.51-1.24 9.5 9.5 0 0 0 1.24-1.51 10 10 0 0 0 .92-1.72 9.4 9.4 0 0 0 .56-1.87 9.6 9.6 0 0 0 0-3.89 9.4 9.4 0 0 0-.56-1.87 10 10 0 0 0-.92-1.72 9.5 9.5 0 0 0-1.24-1.51 9.4 9.4 0 0 0-1.51-1.24 10.5 10.5 0 0 0-1.72-.92 9.6 9.6 0 0 0-1.87-.57 10 10 0 0 0-1.97-.19Z"/><path fill="#f43b35" d="m147.87 192.84 1.74 63 57.79-31.79-53.17-33.52z"/><path fill="#2e89e4" d="M154.72 261.43a11.7 11.7 0 0 1-11.66-11.67V196.9a11.66 11.66 0 0 1 17.48-10.1l45.78 26.44a11.65 11.65 0 0 1 0 20.18l-45.78 26.43a11.53 11.53 0 0 1-5.82 1.58m0-66.2a1.7 1.7 0 0 0-.83.23 1.62 1.62 0 0 0-.83 1.44v52.86a1.6 1.6 0 0 0 .83 1.43 1.58 1.58 0 0 0 1.65 0l45.78-26.43a1.61 1.61 0 0 0 .83-1.43 1.59 1.59 0 0 0-.83-1.43l-45.78-26.44a1.6 1.6 0 0 0-.82-.23"/></svg>