<svg xmlns="http://www.w3.org/2000/svg" xmlns:xlink="http://www.w3.org/1999/xlink" viewBox="20 40 913 270" fill="#fff"><defs><style>.cls-1{fill:none;}.cls-3{clip-path:url(#clip-path);}.cls-4{clip-path:url(#clip-path-2);}.cls-5{clip-path:url(#clip-path-4);}</style><clipPath id="clip-path"><path class="cls-1" d="M684.88,194.13l189.61-66.28a29.27,29.27,0,0,1,37.28,18l19.33,55.36a29.23,29.23,0,0,1-18,37.26L723.52,304.71a29.26,29.26,0,0,1-37.25-18l-19.36-55.36A29.24,29.24,0,0,1,684.88,194.13Z"/></clipPath><clipPath id="clip-path-2"><rect class="cls-1" x="663.78" y="125.28" width="273.12" height="182.08"/></clipPath><clipPath id="clip-path-4"><rect class="cls-1" x="669.32" y="157.69" width="259.45" height="117.15" transform="translate(-26.61 275.75) rotate(-19.27)"/></clipPath></defs><path d="M122.19,66.94A67.75,67.75,0,0,1,137.3,89.56a71,71,0,0,1,5.35,27.23q0,30.69-24.25,48.57-31.05,22.77-68.15,24.46a30.23,30.23,0,0,1-16.93-4.47,12.62,12.62,0,0,1-6.57-8.47q-1.91-6.63,2.44-13.75A24.66,24.66,0,0,0,33,150.87q.21-11.84.34-23.71t.41-23.91Q33.92,95.2,34,87c0-5.45.13-10.87.27-16.26a30.45,30.45,0,0,1,1-8.8,9.47,9.47,0,0,1,3.8-5.08,30.54,30.54,0,0,1,8-3.59c2.74-.9,5.64-1.7,8.67-2.37l8.81-2c1-.27,2-.49,3-.68s2-.4,3-.67l.21,1.15h1.69a69.4,69.4,0,0,1,27.16,4.13A62.18,62.18,0,0,1,122.19,66.94Zm-27.5,69.43a27.27,27.27,0,0,0,10.23-10.77,29.1,29.1,0,0,0,3.52-14.77,30.91,30.91,0,0,0-14.7-26.35,36.41,36.41,0,0,0-12.33-4.81c-4.33-.81-8.63-1.45-12.87-2l-2.71-.41C65,77.17,64,77.07,63.06,77l-2.44-.4,3.59,75.86,2.84-1.55c1.63-.85,3.2-1.65,4.74-2.37s3.14-1.53,4.68-2.31c3.25-1.49,6.37-3,9.35-4.6S91.79,138.27,94.69,136.37Z"/><path d="M184.86,110.63V120c0,4.06-.05,8.43-.13,13.07s-.12,8.81-.21,12.6-.07,6.37-.07,7.86c-.13,1.9-.3,3.79-.47,5.69s-.46,3.72-.81,5.62q-1.38,7.52-5.29,11.58a11.08,11.08,0,0,1-9,3.66,13,13,0,0,1-8.87-4.67c-2.54-2.88-3.52-6.79-3-11.72q1.06-13.87,3.32-27.71c1.52-9.24,3.12-18.5,4.74-27.77a9.64,9.64,0,0,1,3.66-6,9.17,9.17,0,0,1,7.25-1.69,8.58,8.58,0,0,1,6.5,3.25A12.37,12.37,0,0,1,184.86,110.63ZM170.7,84.28a10.44,10.44,0,0,1-7.58-3.66,12.17,12.17,0,0,1-3.12-8.4,11.42,11.42,0,0,1,3.39-8.33,11,11,0,0,1,8.26-3.52,10.8,10.8,0,0,1,8,3.32,10.36,10.36,0,0,1,3.12,8.19,12.39,12.39,0,0,1-3.66,8.88A10.74,10.74,0,0,1,170.7,84.28Z M273.08,99.86c4.77,4.93,7.54,10.26,8.26,16A23.12,23.12,0,0,1,278,131.63q-4.47,7.19-14.09,10.57a81.68,81.68,0,0,1-16.12,3.72q-8.34,1-17.21,2.71,2.64.76,5.08,1.63a34,34,0,0,0,4.95,1.22,98,98,0,0,0,9.82,1.42,42.6,42.6,0,0,1,9.75,2c4.51,1.49,7.22,4,8.13,7.59s-.27,7-3.66,10.43a26,26,0,0,1-6.57,5,19.31,19.31,0,0,1-7.72,2.51Q233,182.1,221.19,176a39,39,0,0,1-17.54-17.34,46.8,46.8,0,0,1-4.47-25.27,90.1,90.1,0,0,1,3-16.66,52.54,52.54,0,0,1,7.18-15.31A35.32,35.32,0,0,1,225.26,87.6a34.81,34.81,0,0,1,21.13-2A46.83,46.83,0,0,1,273.08,99.86ZM256.55,118a1.74,1.74,0,0,0,.81-.27l1.22-.68a19.69,19.69,0,0,0-8.94-7.25,15.07,15.07,0,0,0-10-.81,11.27,11.27,0,0,0-6.44,4.4,25.64,25.64,0,0,0-3.18,7.45l13.55-1.42Q250.09,118.71,256.55,118Z M375.5,109.48a57.47,57.47,0,0,1,11,26,95.56,95.56,0,0,1-.27,28.18,14.21,14.21,0,0,1-4.75,8.87,13.45,13.45,0,0,1-8.39,3.39,15.14,15.14,0,0,1-9.22-2.64,13.22,13.22,0,0,1-5.48-8.47,92.12,92.12,0,0,1-2.44-13.34q-.76-6.76-1.7-13.55c-.27-1.66-.57-3.35-.88-5.08s-.66-3.83-1-6.23q-2.11,1.69-3.59,2.84a10.46,10.46,0,0,0-2.44,2.44,139.58,139.58,0,0,0-11.25,16.46,69.77,69.77,0,0,0-7.38,18.49c-1.13,4.8-3.3,8.4-6.5,10.84a15.31,15.31,0,0,1-11,3.12,16.45,16.45,0,0,1-10.49-5.35c-2.82-3.07-4.14-7.07-4-12q.33-12.93,1.15-25.81t2-25.95a22.32,22.32,0,0,1,2.44-8.53c1.39-2.57,4-3.93,7.93-4.06q5.28-.14,7.72,3.25a25.55,25.55,0,0,1,3.72,7.85,10.82,10.82,0,0,0,.55,1.56,12.9,12.9,0,0,1,.81,2q3.38-2.84,6.3-5.55a55.7,55.7,0,0,1,5.89-4.81q10.77-7.73,22-6.1T375.5,109.48Z M501.19,52.44a17.38,17.38,0,0,1,9.41,6.17,13.55,13.55,0,0,1,2.85,9.89A14.88,14.88,0,0,1,508.77,78a15.39,15.39,0,0,1-10.22,4.2c-2,.14-4,.2-6,.2H463.39l.34,2.24c.27,2.4.57,4.72.95,7s.71,4.52.95,6.77q1.14,7.51,2.09,14.77t1.7,14.42c.62,5.25,1.22,10.84,1.76,16.8s1,12.1,1.22,18.36A37.39,37.39,0,0,1,469.76,177q-3.74,9.44-14.09,9.62-10.57-.19-14.16-9.41a50.24,50.24,0,0,1-3.39-17.89q0-12.39.21-24.72t.61-24.59c0-3.25,0-6.5.06-9.75s.14-6.57.28-10q0-.74-.21-2.64l-.13-3.19-6.24-.61c-2.13-.22-4.26-.42-6.43-.61l-6.37-.67c-1.13-.14-2.17-.24-3.11-.34a24.93,24.93,0,0,1-2.92-.61q-12.06-2.85-12.39-12.4-.41-10,12-13.54h.55a1.61,1.61,0,0,1,.74-.41c4-.22,8-.51,12.06-.88s8-.85,11.85-1.36L458,51.16q9.68-.94,19.24-.95c3.28,0,6.52.1,9.68.27a92.63,92.63,0,0,1,9.69,1.08A43.13,43.13,0,0,1,501.19,52.44Z M604.12,156.69a21.89,21.89,0,0,1,7.31,1.09q4,1.22,6.23,6.09,3.58,7.51-3.18,14.84a33.59,33.59,0,0,1-9.76,7.38q-24.12,11.64-52.7,6-16.72-3.37-21.81-21.88a73.68,73.68,0,0,1-2.71-23.37q.62-11.79,2.1-22.15,1.35-8.66,2.85-17.27c1-5.78,2-11.48,3-17.14.54-2.74,1-5.49,1.42-8.2s.92-5.43,1.42-8.19l.21-.75c.13-.76.23-1.56.34-2.37a6.15,6.15,0,0,0-.14-2.51q-2.11-10.35,9-16.39a44.87,44.87,0,0,1,4.2-2,19.53,19.53,0,0,1,4.47-1.35l8.06-1.16c5.78-.71,11.65-1.49,17.61-2.3s11.89-1.35,17.82-1.63h1.49q8.79,0,14.29,5.09a14.86,14.86,0,0,1-.27,22.62q-5.57,4.68-14.63,5.22a113.32,113.32,0,0,1-11.65.2c-3.9-.14-7.78-.31-11.65-.54l-4.88-.21a50.69,50.69,0,0,0-5.69-.06,5,5,0,0,0-3.39,1.35A4.85,4.85,0,0,0,562,80.35c-.13,1.36-.2,3.24-.2,5.62v23.71l2.44-.4c1.39-.22,2.74-.44,4.06-.68s2.66-.61,4.07-1c2.88-.49,5.72-1,8.53-1.49s5.64-.88,8.4-1.15a64.81,64.81,0,0,1,19.58,1.15q8,1.71,8.67,10c.22,3.17-.48,5.66-2.1,7.45a17.72,17.72,0,0,1-5.08,4.06,34.17,34.17,0,0,1-12.81,3.93c-4,.38-8.12.66-12.32.88s-8.44.39-12.67.61c-1.76,0-3.57.07-5.42.21s-3.64.2-5.49.2l-1.89.2V148.9c0,2.71.06,5.39.2,8a3.68,3.68,0,0,0,.81,2.37c.58.67,1,1.22,1.43,1.62s1.1.78,1.82,1.22a5.23,5.23,0,0,0,2.51.61q10.49-.74,23.3-2.78a19.73,19.73,0,0,0,3.32-.67c1.09-.31,2.12-.61,3.12-.88,1.35-.36,2.67-.7,4-1A35.93,35.93,0,0,1,604.12,156.69Z M771.62,160.08a14,14,0,0,0,.61,2.51,23.26,23.26,0,0,1-3.11,11.65,13.75,13.75,0,0,1-8.2,6.16,14.26,14.26,0,0,1-10.16-.34,17.29,17.29,0,0,1-7.93-7,55.75,55.75,0,0,1-5.41-13.54,15.7,15.7,0,0,0-2.71-5.42q-1.83-2.49-6.71-2.64l-11-.41c-3.63-.14-7.25-.24-10.91-.34q-7.11-.4-14.5-.68T677,149.58a7.43,7.43,0,0,0-4.2,1.63,12.25,12.25,0,0,0-3.32,3.25c-1.05,1.76-2,3.57-3,5.42s-1.81,3.57-2.71,5.28-1.76,3.59-2.7,5.49a62.55,62.55,0,0,1-3.12,5.48q-6.59,11.46-16,7.32a12,12,0,0,1-6.09-6c-1.6-3-1.75-6.54-.48-10.57q6.55-20.44,16.94-46.47,6.55-16.5,16.52-37.25,2.85-5.82,6.3-12.33t7.66-12.67a37.15,37.15,0,0,1,12.6-10.9c4.15-2.53,8.09-3.8,11.85-3.8q10,0,16.6,11.11,12.93,22.23,25.33,46.2a278.22,278.22,0,0,1,20.19,50.53c.49,1.63.91,3.22,1.28,4.74S771.39,158.86,771.62,160.08ZM688.1,117.74h35.16L703.14,76.56Z"/><g class="cls-3"><g class="cls-4"><g class="cls-4"><g class="cls-5"><g class="cls-3"><path class="cls-6" fill="#f43b35" d="M657.26,203.77l244.92-85.6,38.66,110.58-244.92,85.6Z"/></g></g></g></g></g><path d="M735.06,270.29,718.67,276,702.21,228.9l-14.77,5.15-4.67-13.42,45.85-16,4.68,13.41-14.7,5.08Z M786.69,199.61l16.39,46.94-12.19,4.27-4.06-5.15-1,.34a12.2,12.2,0,0,1-2.3,5.15,16.9,16.9,0,0,1-4.2,3.86,25.66,25.66,0,0,1-5.29,2.57,19.82,19.82,0,0,1-8.94,1.15,14.54,14.54,0,0,1-7.85-3.52,20.85,20.85,0,0,1-5.56-9.08L741,215.59l16.19-5.69,8.94,25.68a16.37,16.37,0,0,0,3.72,6.5,4.77,4.77,0,0,0,5.15.81,6.76,6.76,0,0,0,4.13-3.32,10,10,0,0,0,.61-5.69,38.06,38.06,0,0,0-2-8.06l-7.18-20.59Z M808,172.51l5.08,14.57c.57,1.67,1.05,3.3,1.42,4.87s.76,3,1.08,4.34l.61-.2a16.46,16.46,0,0,1,3-6.51,14.78,14.78,0,0,1,7.05-4.74,15.32,15.32,0,0,1,14.15,2.1q6.84,4.55,11,16.33a39.24,39.24,0,0,1,2.5,14.22,19,19,0,0,1-3.18,10.3,16,16,0,0,1-8,5.82c-3.3,1.19-6,1.49-8.2.95a24.4,24.4,0,0,1-5.62-2.23l-1,.4-.94,5.49-12.67,4.4L791.72,178.2Zm16.73,27.17a6.32,6.32,0,0,0-3.32,2.3,6.8,6.8,0,0,0-.95,4,18.64,18.64,0,0,0,1.22,5.69l.81,2.3q1.89,5.43,4.27,7.59c1.57,1.45,3.61,1.74,6.1.88a5,5,0,0,0,3.38-4.47c.36-2.34-.12-5.39-1.42-9.15s-2.83-6.38-4.54-7.92A5.18,5.18,0,0,0,824.71,199.68Z M873.25,168.43a28.27,28.27,0,0,1,12.53-1.69,18.41,18.41,0,0,1,10.16,4.47,25.53,25.53,0,0,1,6.84,11l2.58,7.25-28.93,10.09a8.83,8.83,0,0,0,4.81,5c2.26,1,5,.91,8.4-.27a35.43,35.43,0,0,0,14.29-9L908,206.91a27.62,27.62,0,0,1-6.5,5.21,52.38,52.38,0,0,1-9.83,4.34,32.15,32.15,0,0,1-13.61,2,20.22,20.22,0,0,1-11.52-4.74c-3.35-2.79-6-7-7.85-12.53s-2.65-10.53-2-14.83a19.53,19.53,0,0,1,5.29-11A27.92,27.92,0,0,1,873.25,168.43Zm4.4,10.84a7.48,7.48,0,0,0-4.2,3.52c-.86,1.63-1,3.76-.27,6.37l13.89-4.81a9.52,9.52,0,0,0-2.17-3.52,6.17,6.17,0,0,0-3.18-1.83A7.32,7.32,0,0,0,877.65,179.27Z"/></svg>